<svg id="Capa_1" enable-background="new 0 0 512 512" height="512" viewBox="0 0 512 512" width="512" xmlns="http://www.w3.org/2000/svg"><g><path d="m72.019 348.057c-23.27 23.27-38.744 53.932-43.662 86.465l-23.028 32.24c-8.129 11.38-6.839 26.97 3.051 36.859s25.478 11.179 36.859 3.051l32.239-23.028c32.533-4.917 63.196-20.392 86.465-43.662l105.052-105.052h-183.847z"/><path d="m393.18 239.028-120.208-120.208c-11.716-11.716-30.711-11.716-42.426 0-11.716 11.716-11.716 30.711 0 42.426l120.208 120.208c11.716 11.716 30.711 11.716 42.426 0 11.716-11.715 11.716-30.71 0-42.426z"/><path d="m115.147 304.929h183.848l16.403-16.403-91.924-91.924z"/><path d="m490.033 128.033c29.289-29.289 29.289-76.777 0-106.066-29.289-29.289-76.777-29.289-106.066 0l-82.711 82.711 106.066 106.066z"/></g></svg>